<svg width="737" height="32" viewBox="0 0 737 32" fill="none" xmlns="http://www.w3.org/2000/svg">
<path d="M2.99811 31.9564L5.88488 26.9564L0.111334 26.9564L2.99811 31.9564ZM736 15.9782L736 16.4782L736.5 16.4782L736.5 15.9782L736 15.9782ZM2.99809 15.9781L2.99811 15.4781L2.49812 15.4781L2.49811 15.9781L2.99809 15.9781ZM735.5 -0.000127068L735.5 0.998521L736.5 0.998523L736.5 -0.000124301L735.5 -0.000127068ZM735.5 2.99582L735.5 4.99311L736.5 4.99312L736.5 2.99582L735.5 2.99582ZM735.5 6.99041L735.5 8.98771L736.5 8.98771L736.5 6.99041L735.5 6.99041ZM735.5 10.985L735.5 12.9823L736.5 12.9823L736.5 10.985L735.5 10.985ZM735.5 14.9796L735.5 15.9782L736.5 15.9782L736.5 14.9796L735.5 14.9796ZM736 15.4782L734.999 15.4782L734.999 16.4782L736 16.4782L736 15.4782ZM732.996 15.4782L730.993 15.4782L730.993 16.4782L732.996 16.4782L732.996 15.4782ZM728.99 15.4782L726.988 15.4782L726.988 16.4782L728.99 16.4782L728.99 15.4782ZM724.985 15.4782L722.982 15.4782L722.982 16.4782L724.985 16.4782L724.985 15.4782ZM720.979 15.4782L718.977 15.4782L718.977 16.4782L720.979 16.4782L720.979 15.4782ZM716.974 15.4782L714.971 15.4782L714.971 16.4782L716.974 16.4782L716.974 15.4782ZM712.969 15.4782L710.966 15.4782L710.966 16.4782L712.969 16.4782L712.969 15.4782ZM708.963 15.4782L706.96 15.4782L706.96 16.4782L708.963 16.4782L708.963 15.4782ZM704.958 15.4782L702.955 15.4782L702.955 16.4782L704.958 16.4782L704.958 15.4782ZM700.952 15.4782L698.949 15.4782L698.949 16.4782L700.952 16.4782L700.952 15.4782ZM696.947 15.4782L694.944 15.4782L694.944 16.4782L696.947 16.4782L696.947 15.4782ZM692.941 15.4782L690.938 15.4782L690.938 16.4782L692.941 16.4782L692.941 15.4782ZM688.936 15.4782L686.933 15.4782L686.933 16.4782L688.936 16.4782L688.936 15.4782ZM684.93 15.4782L682.927 15.4782L682.927 16.4782L684.93 16.4782L684.93 15.4782ZM680.925 15.4782L678.922 15.4782L678.922 16.4782L680.925 16.4782L680.925 15.4782ZM676.919 15.4782L674.916 15.4782L674.916 16.4782L676.919 16.4782L676.919 15.4782ZM672.914 15.4782L670.911 15.4782L670.911 16.4782L672.914 16.4782L672.914 15.4782ZM668.908 15.4782L666.906 15.4782L666.906 16.4782L668.908 16.4782L668.908 15.4782ZM664.903 15.4782L662.9 15.4782L662.9 16.4782L664.903 16.4782L664.903 15.4782ZM660.897 15.4782L658.895 15.4782L658.895 16.4782L660.897 16.4782L660.897 15.4782ZM656.892 15.4782L654.889 15.4782L654.889 16.4782L656.892 16.4782L656.892 15.4782ZM652.886 15.4782L650.884 15.4782L650.884 16.4782L652.886 16.4782L652.886 15.4782ZM648.881 15.4782L646.878 15.4782L646.878 16.4782L648.881 16.4782L648.881 15.4782ZM644.875 15.4782L642.873 15.4782L642.873 16.4782L644.875 16.4782L644.875 15.4782ZM640.87 15.4782L638.867 15.4782L638.867 16.4782L640.87 16.4782L640.87 15.4782ZM636.864 15.4782L634.862 15.4782L634.862 16.4782L636.864 16.4782L636.864 15.4782ZM632.859 15.4782L630.856 15.4782L630.856 16.4782L632.859 16.4782L632.859 15.4782ZM628.853 15.4782L626.851 15.4782L626.851 16.4782L628.853 16.4782L628.853 15.4782ZM624.848 15.4782L622.845 15.4782L622.845 16.4782L624.848 16.4782L624.848 15.4782ZM620.843 15.4782L618.84 15.4782L618.84 16.4782L620.843 16.4782L620.843 15.4782ZM616.837 15.4782L614.834 15.4782L614.834 16.4782L616.837 16.4782L616.837 15.4782ZM612.832 15.4782L610.829 15.4782L610.829 16.4782L612.832 16.4782L612.832 15.4782ZM608.826 15.4782L606.823 15.4782L606.823 16.4782L608.826 16.4782L608.826 15.4782ZM604.821 15.4782L602.818 15.4782L602.818 16.4782L604.821 16.4782L604.821 15.4782ZM600.815 15.4782L598.812 15.4782L598.812 16.4782L600.815 16.4782L600.815 15.4782ZM596.81 15.4782L594.807 15.4782L594.807 16.4782L596.81 16.4782L596.81 15.4782ZM592.804 15.4782L590.802 15.4782L590.802 16.4782L592.804 16.4782L592.804 15.4782ZM588.799 15.4782L586.796 15.4782L586.796 16.4782L588.799 16.4782L588.799 15.4782ZM584.793 15.4782L582.791 15.4782L582.791 16.4782L584.793 16.4782L584.793 15.4782ZM580.788 15.4782L578.785 15.4782L578.785 16.4782L580.788 16.4782L580.788 15.4782ZM576.782 15.4782L574.78 15.4782L574.78 16.4782L576.782 16.4782L576.782 15.4782ZM572.777 15.4782L570.774 15.4782L570.774 16.4782L572.777 16.4782L572.777 15.4782ZM568.771 15.4782L566.769 15.4782L566.769 16.4782L568.771 16.4782L568.771 15.4782ZM564.766 15.4782L562.763 15.4782L562.763 16.4782L564.766 16.4782L564.766 15.4782ZM560.761 15.4782L558.758 15.4782L558.758 16.4782L560.761 16.4782L560.761 15.4782ZM556.755 15.4782L554.752 15.4782L554.752 16.4782L556.755 16.4782L556.755 15.4782ZM552.75 15.4782L550.747 15.4782L550.747 16.4782L552.75 16.4782L552.75 15.4782ZM548.744 15.4782L546.741 15.4782L546.741 16.4782L548.744 16.4782L548.744 15.4782ZM544.739 15.4782L542.736 15.4782L542.736 16.4782L544.739 16.4782L544.739 15.4782ZM540.733 15.4782L538.731 15.4782L538.73 16.4782L540.733 16.4782L540.733 15.4782ZM536.728 15.4782L534.725 15.4782L534.725 16.4782L536.728 16.4782L536.728 15.4782ZM532.722 15.4782L530.72 15.4782L530.72 16.4782L532.722 16.4782L532.722 15.4782ZM528.717 15.4782L526.714 15.4782L526.714 16.4782L528.717 16.4782L528.717 15.4782ZM524.711 15.4782L522.709 15.4782L522.709 16.4782L524.711 16.4782L524.711 15.4782ZM520.706 15.4782L518.703 15.4782L518.703 16.4782L520.706 16.4782L520.706 15.4782ZM516.7 15.4782L514.698 15.4782L514.698 16.4782L516.7 16.4782L516.7 15.4782ZM512.695 15.4782L510.692 15.4782L510.692 16.4782L512.695 16.4782L512.695 15.4782ZM508.69 15.4782L506.687 15.4782L506.687 16.4782L508.69 16.4782L508.69 15.4782ZM504.684 15.4782L502.681 15.4782L502.681 16.4782L504.684 16.4782L504.684 15.4782ZM500.679 15.4782L498.676 15.4782L498.676 16.4782L500.679 16.4782L500.679 15.4782ZM496.673 15.4782L494.67 15.4782L494.67 16.4782L496.673 16.4782L496.673 15.4782ZM492.668 15.4782L490.665 15.4782L490.665 16.4782L492.668 16.4782L492.668 15.4782ZM488.662 15.4782L486.659 15.4782L486.659 16.4782L488.662 16.4782L488.662 15.4782ZM484.657 15.4782L482.654 15.4782L482.654 16.4782L484.657 16.4782L484.657 15.4782ZM480.651 15.4782L478.649 15.4782L478.649 16.4782L480.651 16.4782L480.651 15.4782ZM476.646 15.4782L474.643 15.4782L474.643 16.4782L476.646 16.4782L476.646 15.4782ZM472.64 15.4782L470.638 15.4782L470.638 16.4782L472.64 16.4782L472.64 15.4782ZM468.635 15.4782L466.632 15.4782L466.632 16.4782L468.635 16.4782L468.635 15.4782ZM464.629 15.4782L462.627 15.4782L462.627 16.4782L464.629 16.4782L464.629 15.4782ZM460.624 15.4782L458.621 15.4782L458.621 16.4782L460.624 16.4782L460.624 15.4782ZM456.618 15.4782L454.616 15.4782L454.616 16.4782L456.618 16.4782L456.618 15.4782ZM452.613 15.4782L450.61 15.4782L450.61 16.4782L452.613 16.4782L452.613 15.4782ZM448.607 15.4782L446.605 15.4782L446.605 16.4782L448.607 16.4782L448.607 15.4782ZM444.602 15.4782L442.599 15.4782L442.599 16.4782L444.602 16.4782L444.602 15.4782ZM440.596 15.4782L438.594 15.4782L438.594 16.4782L440.596 16.4782L440.596 15.4782ZM436.591 15.4782L434.588 15.4782L434.588 16.4782L436.591 16.4782L436.591 15.4782ZM432.585 15.4782L430.583 15.4782L430.583 16.4782L432.585 16.4782L432.585 15.4782ZM428.58 15.4782L426.577 15.4782L426.577 16.4782L428.58 16.4782L428.58 15.4782ZM424.574 15.4782L422.572 15.4782L422.572 16.4782L424.574 16.4782L424.574 15.4782ZM420.569 15.4782L418.566 15.4782L418.566 16.4782L420.569 16.4782L420.569 15.4782ZM416.563 15.4782L414.561 15.4782L414.561 16.4782L416.563 16.4782L416.563 15.4782ZM412.558 15.4782L410.555 15.4782L410.555 16.4782L412.558 16.4782L412.558 15.4782ZM408.552 15.4782L406.55 15.4782L406.55 16.4782L408.552 16.4782L408.552 15.4782ZM404.547 15.4782L402.544 15.4782L402.544 16.4782L404.547 16.4782L404.547 15.4782ZM400.541 15.4782L398.539 15.4782L398.539 16.4782L400.541 16.4782L400.541 15.4782ZM396.536 15.4782L394.533 15.4782L394.533 16.4782L396.536 16.4782L396.536 15.4782ZM392.53 15.4782L390.528 15.4782L390.528 16.4782L392.53 16.4782L392.53 15.4782ZM388.525 15.4782L386.522 15.4782L386.522 16.4782L388.525 16.4782L388.525 15.4782ZM384.519 15.4782L382.517 15.4782L382.517 16.4782L384.519 16.4782L384.519 15.4782ZM380.514 15.4782L378.511 15.4782L378.511 16.4782L380.514 16.4782L380.514 15.4782ZM376.508 15.4782L374.506 15.4782L374.506 16.4782L376.508 16.4782L376.508 15.4782ZM372.503 15.4782L370.5 15.4782L370.5 16.4782L372.503 16.4782L372.503 15.4782ZM368.497 15.4782L366.495 15.4782L366.495 16.4782L368.498 16.4782L368.497 15.4782ZM364.492 15.4782L362.489 15.4782L362.489 16.4782L364.492 16.4782L364.492 15.4782ZM360.487 15.4782L358.484 15.4782L358.484 16.4782L360.487 16.4782L360.487 15.4782ZM356.481 15.4782L354.478 15.4782L354.478 16.4782L356.481 16.4782L356.481 15.4782ZM352.476 15.4782L350.473 15.4782L350.473 16.4782L352.475 16.4782L352.476 15.4782ZM348.47 15.4782L346.467 15.4782L346.467 16.4782L348.47 16.4782L348.47 15.4782ZM344.465 15.4782L342.462 15.4782L342.462 16.4782L344.465 16.4782L344.465 15.4782ZM340.459 15.4782L338.456 15.4782L338.456 16.4782L340.459 16.4782L340.459 15.4782ZM336.454 15.4782L334.451 15.4782L334.451 16.4782L336.454 16.4782L336.454 15.4782ZM332.448 15.4782L330.445 15.4782L330.445 16.4782L332.448 16.4782L332.448 15.4782ZM328.443 15.4782L326.44 15.4782L326.44 16.4782L328.443 16.4782L328.443 15.4782ZM324.437 15.4782L322.434 15.4782L322.434 16.4782L324.437 16.4782L324.437 15.4782ZM320.432 15.4782L318.429 15.4782L318.429 16.4782L320.432 16.4782L320.432 15.4782ZM316.426 15.4782L314.423 15.4782L314.423 16.4782L316.426 16.4782L316.426 15.4782ZM312.421 15.4782L310.418 15.4782L310.418 16.4782L312.421 16.4782L312.421 15.4782ZM308.415 15.4782L306.412 15.4782L306.412 16.4782L308.415 16.4782L308.415 15.4782ZM304.41 15.4782L302.407 15.4782L302.407 16.4782L304.41 16.4782L304.41 15.4782ZM300.404 15.4782L298.401 15.4782L298.401 16.4782L300.404 16.4782L300.404 15.4782ZM296.399 15.4782L294.396 15.4782L294.396 16.4782L296.399 16.4782L296.399 15.4782ZM292.393 15.4782L290.39 15.4782L290.39 16.4782L292.393 16.4782L292.393 15.4782ZM288.388 15.4782L286.385 15.4782L286.385 16.4782L288.388 16.4782L288.388 15.4782ZM284.382 15.4782L282.379 15.4782L282.379 16.4782L284.382 16.4782L284.382 15.4782ZM280.377 15.4782L278.374 15.4782L278.374 16.4782L280.377 16.4782L280.377 15.4782ZM276.371 15.4782L274.368 15.4782L274.368 16.4782L276.371 16.4782L276.371 15.4782ZM272.366 15.4782L270.363 15.4782L270.363 16.4782L272.366 16.4782L272.366 15.4782ZM268.36 15.4782L266.357 15.4782L266.357 16.4782L268.36 16.4782L268.36 15.4782ZM264.355 15.4782L262.352 15.4782L262.352 16.4782L264.355 16.4782L264.355 15.4782ZM260.349 15.4782L258.346 15.4782L258.346 16.4782L260.349 16.4782L260.349 15.4782ZM256.344 15.4782L254.341 15.4782L254.341 16.4782L256.344 16.4782L256.344 15.4782ZM252.338 15.4782L250.335 15.4782L250.335 16.4782L252.338 16.4782L252.338 15.4782ZM248.333 15.4782L246.33 15.4782L246.33 16.4782L248.333 16.4782L248.333 15.4782ZM244.327 15.4782L242.324 15.4782L242.324 16.4782L244.327 16.4782L244.327 15.4782ZM240.322 15.4782L238.319 15.4782L238.319 16.4782L240.322 16.4782L240.322 15.4782ZM236.316 15.4782L234.313 15.4782L234.313 16.4782L236.316 16.4782L236.316 15.4782ZM232.311 15.4782L230.308 15.4782L230.308 16.4782L232.311 16.4782L232.311 15.4782ZM228.305 15.4782L226.302 15.4782L226.303 16.4782L228.305 16.4782L228.305 15.4782ZM224.3 15.4781L222.297 15.4781L222.297 16.4781L224.3 16.4782L224.3 15.4781ZM220.294 15.4782L218.291 15.4781L218.292 16.4781L220.294 16.4781L220.294 15.4782ZM216.289 15.4781L214.286 15.4781L214.286 16.4781L216.289 16.4781L216.289 15.4781ZM212.283 15.4781L210.281 15.4781L210.28 16.4781L212.283 16.4781L212.283 15.4781ZM208.278 15.4781L206.275 15.4781L206.275 16.4781L208.278 16.4781L208.278 15.4781ZM204.272 15.4781L202.269 15.4781L202.27 16.4781L204.272 16.4781L204.272 15.4781ZM200.267 15.4781L198.264 15.4781L198.264 16.4781L200.267 16.4781L200.267 15.4781ZM196.261 15.4781L194.259 15.4781L194.259 16.4781L196.261 16.4781L196.261 15.4781ZM192.256 15.4781L190.253 15.4781L190.253 16.4781L192.256 16.4781L192.256 15.4781ZM188.25 15.4781L186.248 15.4781L186.248 16.4781L188.25 16.4781L188.25 15.4781ZM184.245 15.4781L182.242 15.4781L182.242 16.4781L184.245 16.4781L184.245 15.4781ZM180.239 15.4781L178.237 15.4781L178.237 16.4781L180.239 16.4781L180.239 15.4781ZM176.234 15.4781L174.231 15.4781L174.231 16.4781L176.234 16.4781L176.234 15.4781ZM172.228 15.4781L170.226 15.4781L170.226 16.4781L172.228 16.4781L172.228 15.4781ZM168.223 15.4781L166.22 15.4781L166.22 16.4781L168.223 16.4781L168.223 15.4781ZM164.217 15.4781L162.215 15.4781L162.215 16.4781L164.217 16.4781L164.217 15.4781ZM160.212 15.4781L158.209 15.4781L158.209 16.4781L160.212 16.4781L160.212 15.4781ZM156.206 15.4781L154.204 15.4781L154.204 16.4781L156.206 16.4781L156.206 15.4781ZM152.201 15.4781L150.198 15.4781L150.198 16.4781L152.201 16.4781L152.201 15.4781ZM148.195 15.4781L146.193 15.4781L146.193 16.4781L148.195 16.4781L148.195 15.4781ZM144.19 15.4781L142.187 15.4781L142.187 16.4781L144.19 16.4781L144.19 15.4781ZM140.184 15.4781L138.182 15.4781L138.182 16.4781L140.184 16.4781L140.184 15.4781ZM136.179 15.4781L134.176 15.4781L134.176 16.4781L136.179 16.4781L136.179 15.4781ZM132.173 15.4781L130.171 15.4781L130.171 16.4781L132.173 16.4781L132.173 15.4781ZM128.168 15.4781L126.165 15.4781L126.165 16.4781L128.168 16.4781L128.168 15.4781ZM124.162 15.4781L122.16 15.4781L122.16 16.4781L124.162 16.4781L124.162 15.4781ZM120.157 15.4781L118.154 15.4781L118.154 16.4781L120.157 16.4781L120.157 15.4781ZM116.151 15.4781L114.149 15.4781L114.149 16.4781L116.151 16.4781L116.151 15.4781ZM112.146 15.4781L110.143 15.4781L110.143 16.4781L112.146 16.4781L112.146 15.4781ZM108.14 15.4781L106.138 15.4781L106.138 16.4781L108.14 16.4781L108.14 15.4781ZM104.135 15.4781L102.132 15.4781L102.132 16.4781L104.135 16.4781L104.135 15.4781ZM100.129 15.4781L98.1267 15.4781L98.1267 16.4781L100.129 16.4781L100.129 15.4781ZM96.124 15.4781L94.1212 15.4781L94.1212 16.4781L96.1239 16.4781L96.124 15.4781ZM92.1184 15.4781L90.1157 15.4781L90.1157 16.4781L92.1184 16.4781L92.1184 15.4781ZM88.1129 15.4781L86.1102 15.4781L86.1102 16.4781L88.113 16.4781L88.1129 15.4781ZM84.1075 15.4781L82.1047 15.4781L82.1048 16.4781L84.1075 16.4781L84.1075 15.4781ZM80.102 15.4781L78.0992 15.4781L78.0992 16.4781L80.102 16.4781L80.102 15.4781ZM76.0965 15.4781L74.0937 15.4781L74.0938 16.4781L76.0965 16.4781L76.0965 15.4781ZM72.091 15.4781L70.0883 15.4781L70.0882 16.4781L72.091 16.4781L72.091 15.4781ZM68.0855 15.4781L66.0828 15.4781L66.0828 16.4781L68.0855 16.4781L68.0855 15.4781ZM64.08 15.4781L62.0773 15.4781L62.0773 16.4781L64.08 16.4781L64.08 15.4781ZM60.0745 15.4781L58.0717 15.4781L58.0718 16.4781L60.0745 16.4781L60.0745 15.4781ZM56.069 15.4781L54.0663 15.4781L54.0663 16.4781L56.069 16.4781L56.069 15.4781ZM52.0635 15.4781L50.0608 15.4781L50.0608 16.4781L52.0636 16.4781L52.0635 15.4781ZM48.058 15.4781L46.0553 15.4781L46.0553 16.4781L48.058 16.4781L48.058 15.4781ZM44.0525 15.4781L42.0498 15.4781L42.0498 16.4781L44.0525 16.4781L44.0525 15.4781ZM40.0471 15.4781L38.0443 15.4781L38.0443 16.4781L40.047 16.4781L40.0471 15.4781ZM36.0416 15.4781L34.0388 15.4781L34.0388 16.4781L36.0416 16.4781L36.0416 15.4781ZM32.0361 15.4781L30.0333 15.4781L30.0333 16.4781L32.0361 16.4781L32.0361 15.4781ZM28.0305 15.4781L26.0278 15.4781L26.0278 16.4781L28.0306 16.4781L28.0305 15.4781ZM24.0251 15.4781L22.0223 15.4781L22.0224 16.4781L24.0251 16.4781L24.0251 15.4781ZM20.0196 15.4781L18.0168 15.4781L18.0168 16.4781L20.0196 16.4781L20.0196 15.4781ZM16.0141 15.4781L14.0113 15.4781L14.0113 16.4781L16.0141 16.4781L16.0141 15.4781ZM12.0086 15.4781L10.0059 15.4781L10.0058 16.4781L12.0086 16.4781L12.0086 15.4781ZM8.0031 15.4781L6.00035 15.4781L6.00038 16.4781L8.00308 16.4781L8.0031 15.4781ZM3.99759 15.4781L2.99811 15.4781L2.99808 16.4781L3.99763 16.4781L3.99759 15.4781ZM2.49811 15.9781L2.49809 16.9768L3.49812 16.9767L3.49808 15.9781L2.49811 15.9781ZM2.4981 18.974L2.49812 20.9713L3.49809 20.9713L3.49808 18.974L2.4981 18.974ZM2.49808 22.9686L2.49809 24.9659L3.49813 24.9659L3.49811 22.9686L2.49808 22.9686ZM2.49811 26.9632L2.49813 28.9604L3.4981 28.9604L3.49808 26.9632L2.49811 26.9632Z" fill="#137EC1"/>
</svg>
