<svg width="423" height="32" viewBox="0 0 423 32" fill="none" xmlns="http://www.w3.org/2000/svg">
<path d="M422 16.0001V16.5001H422.5V16.0001H422ZM3 16L3 15.5H2.5L2.5 16H3ZM3.00001 32L5.88676 27L0.113255 27L3.00001 32ZM3.50001 29L3.50001 27H2.50001L2.50001 29H3.50001ZM3.50001 25L3.5 23H2.5L2.5 25H3.50001ZM3.5 21L3.5 19H2.5L2.5 21H3.5ZM3.5 17L3.5 16H2.5L2.5 17H3.5ZM3 16.5H3.99762L3.99762 15.5H3L3 16.5ZM5.99286 16.5L7.98809 16.5L7.9881 15.5L5.99286 15.5L5.99286 16.5ZM9.98333 16.5H11.9786V15.5L9.98333 15.5L9.98333 16.5ZM13.9738 16.5H15.969V15.5H13.9738L13.9738 16.5ZM17.9643 16.5L19.9595 16.5V15.5L17.9643 15.5L17.9643 16.5ZM21.9548 16.5H23.95V15.5L21.9548 15.5V16.5ZM25.9452 16.5H27.9405V15.5H25.9452V16.5ZM29.9357 16.5L31.9309 16.5V15.5L29.9357 15.5V16.5ZM33.9262 16.5H35.9214V15.5L33.9262 15.5V16.5ZM37.9167 16.5H39.9119V15.5H37.9167V16.5ZM41.9071 16.5L43.9024 16.5V15.5L41.9071 15.5V16.5ZM45.8976 16.5H47.8929V15.5L45.8976 15.5V16.5ZM49.8881 16.5H51.8833V15.5L49.8881 15.5V16.5ZM53.8786 16.5L55.8738 16.5L55.8738 15.5H53.8786V16.5ZM57.8691 16.5H59.8643V15.5L57.8691 15.5V16.5ZM61.8595 16.5H63.8548V15.5L61.8595 15.5V16.5ZM65.85 16.5L67.8453 16.5V15.5H65.85V16.5ZM69.8405 16.5H71.8357V15.5L69.8405 15.5V16.5ZM73.831 16.5H75.8262V15.5L73.831 15.5V16.5ZM77.8214 16.5L79.8167 16.5V15.5H77.8214V16.5ZM81.8119 16.5H83.8072V15.5L81.8119 15.5V16.5ZM85.8024 16.5H87.7976V15.5L85.8024 15.5V16.5ZM89.7929 16.5L91.7881 16.5V15.5H89.7929V16.5ZM93.7834 16.5H95.7786V15.5L93.7834 15.5V16.5ZM97.7738 16.5H99.7691V15.5L97.7738 15.5V16.5ZM101.764 16.5L103.76 16.5V15.5H101.764V16.5ZM105.755 16.5H107.75V15.5L105.755 15.5V16.5ZM109.745 16.5H111.741V15.5L109.745 15.5L109.745 16.5ZM113.736 16.5L115.731 16.5V15.5H113.736V16.5ZM117.726 16.5H119.721V15.5L117.726 15.5V16.5ZM121.717 16.5H123.712V15.5L121.717 15.5V16.5ZM125.707 16.5L127.702 16.5L127.702 15.5H125.707V16.5ZM129.698 16.5H131.693V15.5L129.698 15.5V16.5ZM133.688 16.5H135.683V15.5L133.688 15.5V16.5ZM137.679 16.5L139.674 16.5V15.5H137.679V16.5ZM141.669 16.5H143.664V15.5L141.669 15.5V16.5ZM145.66 16.5H147.655V15.5L145.66 15.5V16.5ZM149.65 16.5L151.645 16.5V15.5H149.65V16.5ZM153.641 16.5H155.636V15.5L153.641 15.5V16.5ZM157.631 16.5H159.626V15.5L157.631 15.5V16.5ZM161.621 16.5L163.617 16.5V15.5H161.621V16.5ZM165.612 16.5H167.607V15.5L165.612 15.5V16.5ZM169.602 16.5H171.598V15.5L169.602 15.5V16.5ZM173.593 16.5L175.588 16.5V15.5H173.593V16.5ZM177.583 16.5H179.579V15.5001L177.583 15.5V16.5ZM181.574 16.5001H183.569V15.5001L181.574 15.5001V16.5001ZM185.564 16.5001L187.56 16.5001V15.5001H185.564V16.5001ZM189.555 16.5001H191.55V15.5001L189.555 15.5001V16.5001ZM193.545 16.5001H195.541V15.5001L193.545 15.5001V16.5001ZM197.536 16.5001L199.531 16.5001V15.5001H197.536V16.5001ZM201.526 16.5001H203.522V15.5001L201.526 15.5001V16.5001ZM205.517 16.5001H207.512V15.5001L205.517 15.5001V16.5001ZM209.507 16.5001L211.502 16.5001V15.5001H209.507V16.5001ZM213.498 16.5001H215.493V15.5001L213.498 15.5001V16.5001ZM217.488 16.5001H219.483V15.5001L217.488 15.5001V16.5001ZM221.479 16.5001L223.474 16.5001V15.5001H221.479V16.5001ZM225.469 16.5001H227.464V15.5001H225.469V16.5001ZM229.46 16.5001H231.455V15.5001L229.46 15.5001V16.5001ZM233.45 16.5001L235.445 16.5001V15.5001L233.45 15.5001V16.5001ZM237.441 16.5001H239.436V15.5001H237.441V16.5001ZM241.431 16.5001H243.426L243.426 15.5001L241.431 15.5001V16.5001ZM245.422 16.5001L247.417 16.5001V15.5001L245.422 15.5001V16.5001ZM249.412 16.5001H251.407V15.5001H249.412V16.5001ZM253.402 16.5001H255.398V15.5001L253.402 15.5001V16.5001ZM257.393 16.5001L259.388 16.5001V15.5001L257.393 15.5001V16.5001ZM261.383 16.5001H263.379V15.5001H261.383V16.5001ZM265.374 16.5001H267.369V15.5001L265.374 15.5001V16.5001ZM269.364 16.5001L271.36 16.5001V15.5001L269.364 15.5001V16.5001ZM273.355 16.5001H275.35V15.5001H273.355V16.5001ZM277.345 16.5001H279.341V15.5001L277.345 15.5001V16.5001ZM281.336 16.5001L283.331 16.5001V15.5001L281.336 15.5001V16.5001ZM285.326 16.5001H287.322V15.5001H285.326V16.5001ZM289.317 16.5001H291.312V15.5001L289.317 15.5001V16.5001ZM293.307 16.5001L295.303 16.5001V15.5001L293.307 15.5001V16.5001ZM297.298 16.5001H299.293V15.5001H297.298V16.5001ZM301.288 16.5001H303.283V15.5001L301.288 15.5001V16.5001ZM305.279 16.5001L307.274 16.5001V15.5001L305.279 15.5001V16.5001ZM309.269 16.5001H311.264V15.5001H309.269V16.5001ZM313.26 16.5001L315.255 16.5001V15.5001L313.26 15.5001V16.5001ZM317.25 16.5001H319.245V15.5001L317.25 15.5001V16.5001ZM321.241 16.5001H323.236V15.5001H321.241V16.5001ZM325.231 16.5001L327.226 16.5001V15.5001L325.231 15.5001V16.5001ZM329.222 16.5001H331.217V15.5001L329.222 15.5001V16.5001ZM333.212 16.5001H335.207V15.5001H333.212V16.5001ZM337.203 16.5001L339.198 16.5001V15.5001L337.203 15.5001V16.5001ZM341.193 16.5001H343.188V15.5001L341.193 15.5001V16.5001ZM345.184 16.5001H347.179V15.5001H345.184V16.5001ZM349.174 16.5001L351.169 16.5001V15.5001L349.174 15.5001V16.5001ZM353.164 16.5001H355.16V15.5001L353.164 15.5001V16.5001ZM357.155 16.5001H359.15V15.5001H357.155V16.5001ZM361.145 16.5001L363.141 16.5001V15.5001L361.145 15.5001V16.5001ZM365.136 16.5001H367.131V15.5001L365.136 15.5001V16.5001ZM369.126 16.5001H371.122V15.5001H369.126V16.5001ZM373.117 16.5001L375.112 16.5001V15.5001L373.117 15.5001V16.5001ZM377.107 16.5001H379.103V15.5001L377.107 15.5001V16.5001ZM381.098 16.5001H383.093V15.5001H381.098V16.5001ZM385.088 16.5001L387.084 16.5001V15.5001L385.088 15.5001V16.5001ZM389.079 16.5001H391.074V15.5001L389.079 15.5001V16.5001ZM393.069 16.5001H395.064V15.5001H393.069V16.5001ZM397.06 16.5001L399.055 16.5001V15.5001H397.06V16.5001ZM401.05 16.5001H403.045V15.5001L401.05 15.5001V16.5001ZM405.041 16.5001H407.036V15.5001L405.041 15.5001V16.5001ZM409.031 16.5001L411.026 16.5001V15.5001H409.031V16.5001ZM413.022 16.5001H415.017V15.5001L413.022 15.5001V16.5001ZM417.012 16.5001H419.007V15.5001L417.012 15.5001V16.5001ZM421.003 16.5001L422 16.5001V15.5001H421.003V16.5001ZM422.5 16.0001V15.0001L421.5 15.0001V16.0001L422.5 16.0001ZM422.5 13.0001L422.5 11.0001L421.5 11.0001L421.5 13.0001L422.5 13.0001ZM422.5 9.00007V7.00006L421.5 7.00005V9.00007L422.5 9.00007ZM422.5 5.00004V3.00002L421.5 3.00002V5.00004L422.5 5.00004ZM422.5 1.00001V1.09027e-06L421.5 -1.09027e-06V1.00001L422.5 1.00001Z" fill="#137EC1"/>
</svg>
