<svg width="324" height="32" viewBox="0 0 324 32" fill="none" xmlns="http://www.w3.org/2000/svg">
<path d="M323 16.0001L323 16.5001L323.5 16.5001L323.5 16.0001L323 16.0001ZM3 16L3 15.5L2.5 15.5L2.5 16L3 16ZM3.00001 32L5.88676 27L0.113253 27L3.00001 32ZM3.50001 29L3.5 27L2.5 27L2.50001 29L3.50001 29ZM3.5 25L3.5 23L2.5 23L2.5 25L3.5 25ZM3.5 21L3.5 19L2.5 19L2.5 21L3.5 21ZM3.5 17L3.5 16L2.5 16L2.5 17L3.5 17ZM3 16.5L4 16.5L4 15.5L3 15.5L3 16.5ZM6 16.5L8 16.5L8 15.5L6 15.5L6 16.5ZM10 16.5L12 16.5L12 15.5L10 15.5L10 16.5ZM14 16.5L16 16.5L16 15.5L14 15.5L14 16.5ZM18 16.5L20 16.5L20 15.5L18 15.5L18 16.5ZM22 16.5L24 16.5L24 15.5L22 15.5L22 16.5ZM26 16.5L28 16.5L28 15.5L26 15.5L26 16.5ZM30 16.5L32 16.5L32 15.5L30 15.5L30 16.5ZM34 16.5L36 16.5L36 15.5L34 15.5L34 16.5ZM38 16.5L40 16.5L40 15.5L38 15.5L38 16.5ZM42 16.5L44 16.5L44 15.5L42 15.5L42 16.5ZM46 16.5L48 16.5L48 15.5L46 15.5L46 16.5ZM50 16.5L52 16.5L52 15.5L50 15.5L50 16.5ZM54 16.5L56 16.5L56 15.5L54 15.5L54 16.5ZM58 16.5L60 16.5L60 15.5L58 15.5L58 16.5ZM62 16.5L64 16.5L64 15.5L62 15.5L62 16.5ZM66 16.5L68 16.5L68 15.5L66 15.5L66 16.5ZM70 16.5L72 16.5L72 15.5L70 15.5L70 16.5ZM74 16.5L76 16.5L76 15.5L74 15.5L74 16.5ZM78 16.5L80 16.5L80 15.5L78 15.5L78 16.5ZM82 16.5L84 16.5L84 15.5L82 15.5L82 16.5ZM86 16.5L88 16.5L88 15.5L86 15.5L86 16.5ZM90 16.5L92 16.5L92 15.5L90 15.5L90 16.5ZM94 16.5L96 16.5L96 15.5L94 15.5L94 16.5ZM98 16.5L100 16.5L100 15.5L98 15.5L98 16.5ZM102 16.5L104 16.5L104 15.5L102 15.5L102 16.5ZM106 16.5L108 16.5L108 15.5L106 15.5L106 16.5ZM110 16.5L112 16.5L112 15.5L110 15.5L110 16.5ZM114 16.5L116 16.5L116 15.5L114 15.5L114 16.5ZM118 16.5L120 16.5L120 15.5L118 15.5L118 16.5ZM122 16.5L124 16.5L124 15.5L122 15.5L122 16.5ZM126 16.5L128 16.5L128 15.5L126 15.5L126 16.5ZM130 16.5L132 16.5L132 15.5L130 15.5L130 16.5ZM134 16.5L136 16.5L136 15.5L134 15.5L134 16.5ZM138 16.5001L140 16.5001L140 15.5001L138 15.5001L138 16.5001ZM142 16.5001L144 16.5001L144 15.5001L142 15.5001L142 16.5001ZM146 16.5001L148 16.5001L148 15.5001L146 15.5001L146 16.5001ZM150 16.5001L152 16.5001L152 15.5001L150 15.5001L150 16.5001ZM154 16.5001L156 16.5001L156 15.5001L154 15.5001L154 16.5001ZM158 16.5001L160 16.5001L160 15.5001L158 15.5001L158 16.5001ZM162 16.5001L164 16.5001L164 15.5001L162 15.5001L162 16.5001ZM166 16.5001L168 16.5001L168 15.5001L166 15.5001L166 16.5001ZM170 16.5001L172 16.5001L172 15.5001L170 15.5001L170 16.5001ZM174 16.5001L176 16.5001L176 15.5001L174 15.5001L174 16.5001ZM178 16.5001L180 16.5001L180 15.5001L178 15.5001L178 16.5001ZM182 16.5001L184 16.5001L184 15.5001L182 15.5001L182 16.5001ZM186 16.5001L188 16.5001L188 15.5001L186 15.5001L186 16.5001ZM190 16.5001L192 16.5001L192 15.5001L190 15.5001L190 16.5001ZM194 16.5001L196 16.5001L196 15.5001L194 15.5001L194 16.5001ZM198 16.5001L200 16.5001L200 15.5001L198 15.5001L198 16.5001ZM202 16.5001L204 16.5001L204 15.5001L202 15.5001L202 16.5001ZM206 16.5001L208 16.5001L208 15.5001L206 15.5001L206 16.5001ZM210 16.5001L212 16.5001L212 15.5001L210 15.5001L210 16.5001ZM214 16.5001L216 16.5001L216 15.5001L214 15.5001L214 16.5001ZM218 16.5001L220 16.5001L220 15.5001L218 15.5001L218 16.5001ZM222 16.5001L224 16.5001L224 15.5001L222 15.5001L222 16.5001ZM226 16.5001L228 16.5001L228 15.5001L226 15.5001L226 16.5001ZM230 16.5001L232 16.5001L232 15.5001L230 15.5001L230 16.5001ZM234 16.5001L236 16.5001L236 15.5001L234 15.5001L234 16.5001ZM238 16.5001L240 16.5001L240 15.5001L238 15.5001L238 16.5001ZM242 16.5001L244 16.5001L244 15.5001L242 15.5001L242 16.5001ZM246 16.5001L248 16.5001L248 15.5001L246 15.5001L246 16.5001ZM250 16.5001L252 16.5001L252 15.5001L250 15.5001L250 16.5001ZM254 16.5001L256 16.5001L256 15.5001L254 15.5001L254 16.5001ZM258 16.5001L260 16.5001L260 15.5001L258 15.5001L258 16.5001ZM262 16.5001L264 16.5001L264 15.5001L262 15.5001L262 16.5001ZM266 16.5001L268 16.5001L268 15.5001L266 15.5001L266 16.5001ZM270 16.5001L272 16.5001L272 15.5001L270 15.5001L270 16.5001ZM274 16.5001L276 16.5001L276 15.5001L274 15.5001L274 16.5001ZM278 16.5001L280 16.5001L280 15.5001L278 15.5001L278 16.5001ZM282 16.5001L284 16.5001L284 15.5001L282 15.5001L282 16.5001ZM286 16.5001L288 16.5001L288 15.5001L286 15.5001L286 16.5001ZM290 16.5001L292 16.5001L292 15.5001L290 15.5001L290 16.5001ZM294 16.5001L296 16.5001L296 15.5001L294 15.5001L294 16.5001ZM298 16.5001L300 16.5001L300 15.5001L298 15.5001L298 16.5001ZM302 16.5001L304 16.5001L304 15.5001L302 15.5001L302 16.5001ZM306 16.5001L308 16.5001L308 15.5001L306 15.5001L306 16.5001ZM310 16.5001L312 16.5001L312 15.5001L310 15.5001L310 16.5001ZM314 16.5001L316 16.5001L316 15.5001L314 15.5001L314 16.5001ZM318 16.5001L320 16.5001L320 15.5001L318 15.5001L318 16.5001ZM322 16.5001L323 16.5001L323 15.5001L322 15.5001L322 16.5001ZM323.5 16.0001L323.5 15.0001L322.5 15.0001L322.5 16.0001L323.5 16.0001ZM323.5 13.0001L323.5 11.0001L322.5 11.0001L322.5 13.0001L323.5 13.0001ZM323.5 9.00007L323.5 7.00006L322.5 7.00005L322.5 9.00007L323.5 9.00007ZM323.5 5.00004L323.5 3.00002L322.5 3.00002L322.5 5.00004L323.5 5.00004ZM323.5 1.00001L323.5 8.32667e-07L322.5 -8.32667e-07L322.5 1.00001L323.5 1.00001Z" fill="#137EC1"/>
</svg>
