<svg xmlns="http://www.w3.org/2000/svg" version="1.1" xmlns:xlink="http://www.w3.org/1999/xlink" xmlns:svgjs="http://svgjs.dev/svgjs" width="1024" height="1024"><svg width="1024" height="1024" viewBox="0 0 1024 1024" fill="none" xmlns="http://www.w3.org/2000/svg">
<g clip-path="url(#clip0_1519_5822)">
<path d="M1024 0H0V1024H1024V0Z" fill="white"></path>
<path d="M999.71 999.71H24.2903V24.29H999.71V999.71Z" fill="#007DC5"></path>
<path d="M158.125 827.297L144.313 780.145H143.836L129.072 827.297H158.125ZM120.975 728.707H167.174L222.899 882.545H174.318L167.65 860.636H119.07L112.402 882.545H64.774L120.975 728.707Z" fill="white"></path>
<path d="M265.764 830.631C265.764 834.441 266.24 837.775 267.669 840.632C271.003 849.682 281.481 852.063 290.054 852.063C297.675 852.063 309.581 849.682 309.581 837.775C309.581 829.678 302.914 827.773 276.718 820.152C252.428 813.008 224.804 806.817 224.804 775.382C224.804 739.661 255.286 724.42 286.72 724.42C320.06 724.42 349.589 737.28 350.541 774.43H305.771C306.724 768.714 303.866 764.904 300.056 762.046C296.246 759.189 291.007 758.236 286.244 758.236C280.052 758.236 269.098 760.141 269.098 768.714C270.05 779.669 291.959 782.05 313.392 788.242C334.824 794.433 356.733 804.435 356.733 832.536C356.733 872.543 320.06 885.403 285.768 885.403C268.145 885.403 218.612 879.211 218.612 830.154H265.764V830.631Z" fill="white"></path>
<path d="M401.503 767.762H358.638V728.707H491.52V767.762H448.655V882.069H401.503V767.762Z" fill="white"></path>
<path d="M551.055 795.862H575.821C584.394 795.862 596.778 794.434 596.778 780.621C596.778 771.096 591.539 765.381 573.44 765.381H551.531V795.862H551.055ZM503.903 728.707H593.92C620.592 728.707 643.929 743.472 643.929 772.525C643.929 788.718 636.785 805.388 621.068 811.103C633.927 815.866 642.024 830.154 643.453 849.682C643.929 857.302 644.406 875.401 648.692 882.545H601.541C599.159 874.925 598.207 866.828 597.73 858.731C596.301 843.967 595.349 828.726 576.298 828.726H551.055V882.545H503.903V728.707Z" fill="white"></path>
<path d="M730.612 847.776C742.519 847.776 761.094 839.68 761.094 805.388C761.094 771.096 742.519 762.999 730.612 762.999C718.705 762.999 700.13 771.096 700.13 805.388C700.13 839.68 718.229 847.776 730.612 847.776ZM730.612 724.896C777.288 724.896 808.246 758.712 808.246 805.388C808.246 852.539 777.288 885.879 730.612 885.879C683.937 885.879 652.979 852.539 652.979 805.388C652.979 758.236 683.937 724.896 730.612 724.896Z" fill="white"></path>
<path d="M823.01 728.707H871.114L915.885 810.627H916.361V728.707H960.655V882.069H914.932L867.781 798.244H867.304V882.069H823.01V728.707Z" fill="white"></path>
<path d="M248.141 671.553H73.8232L512 144.789L951.606 671.553H776.811V461.99L512 368.64L248.141 461.99V671.553Z" fill="white"></path>
</g>
<defs>
<clipPath id="SvgjsClipPath1011">
<rect width="1024" height="1024" fill="white"></rect>
</clipPath>
</defs>
</svg><style>@media (prefers-color-scheme: light) { :root { filter: none; } }
@media (prefers-color-scheme: dark) { :root { filter: none; } }
</style></svg>