<svg width="44" height="44" viewBox="0 0 44 44" fill="none" xmlns="http://www.w3.org/2000/svg">
<path d="M2.48779 1.48781H1.48779V2.48781V41.5122V42.5122H2.48779H41.5122H42.5122V41.5122V2.48781V1.48781H41.5122H2.48779Z" fill="#137EC1" stroke="white" stroke-width="2"/>
<path fill-rule="evenodd" clip-rule="evenodd" d="M7.47332 34.5834L6.91234 32.6468H6.89429L6.28942 34.5834H7.47283H7.47332ZM5.95624 30.5429H7.84063L10.1201 36.8283H8.12112L7.85771 35.9307H5.86844L5.58844 36.8283H3.65088L5.95624 30.5429ZM11.8645 34.7156C11.8645 34.8742 11.8904 35.0151 11.9343 35.1293C12.0748 35.5078 12.4953 35.5878 12.8548 35.5878C13.1704 35.5878 13.6523 35.4815 13.6523 35.0151C13.6523 34.6932 13.3806 34.6054 12.3026 34.2932C11.3123 34.0151 10.1806 33.742 10.1806 32.4737C10.1806 31.0229 11.4172 30.3956 12.706 30.3956C14.0645 30.3956 15.265 30.9166 15.3182 32.4483H13.4948C13.5299 32.2107 13.4245 32.0532 13.2665 31.9473C13.1089 31.8327 12.8899 31.7888 12.6972 31.7888C12.4338 31.7888 12.0045 31.86 12.0045 32.2117C12.0387 32.6605 12.9314 32.7581 13.8192 33.0049C14.7021 33.2517 15.5801 33.6654 15.5801 34.8185C15.5801 36.4561 14.0777 36.9844 12.6875 36.9844C11.9753 36.9844 9.95088 36.7288 9.93137 34.722H11.8601M17.4197 32.1561H15.6684V30.5449H21.1036V32.1561H19.3504V36.8293H17.4216V32.1551M23.5231 33.2907H24.5309C24.8904 33.2907 25.3811 33.2288 25.3811 32.6654C25.3811 32.2693 25.1665 32.041 24.4299 32.041H23.5275V33.2907H23.5231ZM21.5943 30.5444H25.2675C26.3631 30.5444 27.3099 31.1512 27.3099 32.3395C27.3099 32.9912 27.0114 33.6776 26.3719 33.9151C26.8972 34.1181 27.2221 34.699 27.2919 35.4824C27.3182 35.7898 27.327 36.5361 27.5026 36.8288H25.5738C25.4772 36.5117 25.4421 36.1849 25.4158 35.8581C25.3636 35.259 25.3109 34.6346 24.5484 34.6346H23.5231V36.8293H21.5943V30.5429V30.5444ZM30.8597 35.4127C31.3504 35.4127 32.1045 35.0859 32.1045 33.6868C32.1045 32.2868 31.3504 31.9615 30.8597 31.9615C30.3689 31.9615 29.6148 32.2883 29.6148 33.6883C29.6148 35.0883 30.3689 35.4137 30.8597 35.4137V35.4127ZM30.8597 30.3946C32.7621 30.3946 34.0328 31.7654 34.0328 33.6873C34.0328 35.6044 32.7616 36.9761 30.8597 36.9761C28.9572 36.9761 27.6865 35.6024 27.6865 33.6834C27.6865 31.7644 28.9572 30.3917 30.8597 30.3917V30.3946ZM34.6372 30.541H36.6099L38.4333 33.9039H38.4504V30.5415H40.2748V36.8293H38.3982L36.4782 33.3951H36.4606V36.8283H34.6372V30.5429M4.01966 28.5707L22.1709 7.09756L39.9075 28.5707H32.9836L32.7494 20.0195L22.0445 16.2195L11.1519 20.2098L10.986 28.5707" fill="white"/>
</svg>
